<?xml version="1.0" standalone="no"?>
<!DOCTYPE svg PUBLIC "-//W3C//DTD SVG 20010904//EN" "http://www.w3.org/TR/2001/REC-SVG-20010904/DTD/svg10.dtd">
<!-- Created using Krita: https://krita.org -->
<svg xmlns="http://www.w3.org/2000/svg" 
    xmlns:xlink="http://www.w3.org/1999/xlink"
    xmlns:krita="http://krita.org/namespaces/svg/krita"
    xmlns:sodipodi="http://sodipodi.sourceforge.net/DTD/sodipodi-0.dtd"
    width="368.64pt"
    height="368.64pt"
    viewBox="0 0 368.64 368.64">
<defs/>
<g id="group0" transform="matrix(0.72 0 0 0.72 0 0)" fill="none">
  <path id="shape0" transform="translate(388.413, 48.552)" fill="#c7cfe2" stroke-opacity="0" stroke="#000000" stroke-width="0" stroke-linecap="square" stroke-linejoin="bevel" d="M8.828 0L8.828 0C3.953 0 0 3.953 0 8.828L0 34.207L17.655 34.207L17.655 8.827C17.656 3.952 13.703 0 8.828 0Z" sodipodi:nodetypes="ccccccc"/>
  <path id="shape1" transform="translate(79.448, 48.552)" fill="#c7cfe2" stroke-opacity="0" stroke="#000000" stroke-width="0" stroke-linecap="square" stroke-linejoin="bevel" d="M8.828 0L8.828 0C3.953 0 0 3.953 0 8.828L0 34.207L17.655 34.207L17.655 8.827C17.655 3.952 13.703 0 8.828 0Z" sodipodi:nodetypes="ccccccc"/>
 </g><path id="shape2" transform="matrix(0.72 0 0 0.72 292.36968 168.43032)" fill="#afb9d2" stroke-opacity="0" stroke="#000000" stroke-width="0" stroke-linecap="square" stroke-linejoin="bevel" d="M0 0L0 44.138C0 49.013 3.953 52.966 8.828 52.966C13.703 52.966 17.656 49.013 17.656 44.138L17.656 0Z" sodipodi:nodetypes="cccccc"/><g id="group1" transform="matrix(0.72 0 0 0.72 0 0)" fill="none">
  <path id="shape3" transform="translate(44.138, 436.965)" fill="#d7deed" stroke-opacity="0" stroke="#000000" stroke-width="0" stroke-linecap="square" stroke-linejoin="bevel" d="M8.828 26.483L423.725 26.483C428.6 26.483 432.553 22.53 432.553 17.655L432.553 0L0 0L0 17.655C0 22.531 3.952 26.483 8.828 26.483Z" sodipodi:nodetypes="ccccccc"/>
  <path id="shape4" transform="translate(0, 110.345)" fill="#d7deed" stroke-opacity="0" stroke="#000000" stroke-width="0" stroke-linecap="square" stroke-linejoin="bevel" d="M8.828 0C3.953 0 0 3.953 0 8.828L0 79.449C0 84.324 3.953 88.277 8.828 88.277L35.31 88.277L35.31 0.001L8.828 0.001Z" sodipodi:nodetypes="cccccccc"/>
 </g><path id="shape5" transform="matrix(0.72 0 0 0.72 19.06776 54.0252)" fill="#e4eaf6" stroke-opacity="0" stroke="#000000" stroke-width="0" stroke-linecap="square" stroke-linejoin="bevel" d="M450.207 220.689L203.034 220.689C188.408 220.689 176.551 208.832 176.551 194.206L176.551 141.241C176.551 126.615 188.408 114.758 203.034 114.758L317.793 114.758L339.396 157.964C342.386 163.946 348.499 167.724 355.187 167.724L414.896 167.724C424.647 167.724 432.551 159.82 432.551 150.069L432.551 35.31C432.551 15.809 416.742 0 397.241 0L17.655 0C7.904 0 0 7.904 0 17.655L0 353.103C0 362.854 7.904 370.758 17.655 370.758L450.207 370.758C469.708 370.758 485.517 354.949 485.517 335.448L485.517 256C485.517 236.498 469.708 220.689 450.207 220.689Z" sodipodi:nodetypes="cccccccccccccccccccc"/><rect id="shape6" transform="matrix(0.72 0 0 0.72 279.65808 54.02448)" fill="#d7deed" stroke-opacity="0" stroke="#000000" stroke-width="0" stroke-linecap="square" stroke-linejoin="bevel" width="17.655" height="123.586"/><circle id="shape7" transform="matrix(0.72 0 0 0.72 50.84712 143.00712)" r="44.138" cx="44.138" cy="44.138" fill="#a81f3d" stroke="#ffffff" stroke-width="1" stroke-linecap="square" stroke-linejoin="bevel"/><path id="shape8" transform="matrix(0.72 0 0 0.72 55.9699180803836 148.093289207264)" fill="#7f0000" stroke-opacity="0" stroke="#000000" stroke-width="0" stroke-linecap="square" stroke-linejoin="bevel" d="M65.221 74.1469C62.958 74.1469 60.699 73.2849 58.975 71.5559L2.58 15.0649C-0.863997 11.6119 -0.858997 6.02688 2.589 2.58188C6.042 -0.862124 11.627 -0.862124 15.072 2.59088L71.468 59.0819C74.912 62.5349 74.907 68.1199 71.459 71.5649C69.734 73.2839 67.48 74.1469 65.221 74.1469Z" sodipodi:nodetypes="cccccccc"/><path id="shape9" transform="matrix(0.72 0 0 0.72 50.84712 238.34448)" fill="#d7deed" stroke-opacity="0" stroke="#000000" stroke-width="0" stroke-linecap="square" stroke-linejoin="bevel" d="M76.138 0L12.138 0C5.435 0 0 5.434 0 12.138L0 40.828C0 47.531 5.434 52.966 12.138 52.966L76.138 52.966C82.841 52.966 88.276 47.532 88.276 40.828L88.276 12.138C88.276 5.435 82.841 0 76.138 0Z" sodipodi:nodetypes="ccccccccc"/><path id="shape10" transform="matrix(0.72 0 0 0.72 44.49096 54.02448)" fill="#a81f3d" stroke-opacity="0" stroke="#000000" stroke-width="0" stroke-linecap="square" stroke-linejoin="bevel" d="M308.966 0L0 0L0 52.966C0 67.592 11.857 79.449 26.483 79.449L282.483 79.449C297.109 79.449 308.966 67.592 308.966 52.966Z" sodipodi:nodetypes="ccccccc"/><path id="shape11" transform="matrix(0.72 0 0 0.72 266.94576 212.92128)" fill="#afb9d2" stroke-opacity="0" stroke="#000000" stroke-width="0" stroke-linecap="square" stroke-linejoin="bevel" d="M79.449 26.483L8.828 26.483C3.953 26.483 0 22.53 0 17.655L0 0L88.276 0L88.276 17.655C88.276 22.53 84.324 26.483 79.449 26.483Z" sodipodi:nodetypes="ccccccc"/><path id="shape12" transform="matrix(0.72 0 0 0.72 305.08128 54.0252)" fill="#d7deed" stroke-opacity="0" stroke="#000000" stroke-width="0" stroke-linecap="square" stroke-linejoin="bevel" d="M17.655 123.586L17.655 4.897C12.443 1.864 6.465 0 0 0L0 123.586Z" sodipodi:nodetypes="ccccc"/><circle id="shape13" transform="matrix(0.72 0 0 0.72 279.65808 123.93936)" r="26.483" cx="26.483" cy="26.483" fill="#afb9d2" stroke-opacity="0" stroke="#000000" stroke-width="0" stroke-linecap="square" stroke-linejoin="bevel"/><path id="shape14" transform="matrix(0.72 0 0 0.72 50.84712 238.34448)" fill="#ffffff" stroke-opacity="0" stroke="#000000" stroke-width="0" stroke-linecap="square" stroke-linejoin="bevel" d="M75.034 0L13.241 0C5.928 0 0 5.929 0 13.241L0 13.241C0 20.554 5.929 26.482 13.241 26.482L75.034 26.482C82.347 26.482 88.275 20.553 88.275 13.241L88.275 13.241C88.276 5.929 82.347 0 75.034 0Z" sodipodi:nodetypes="ccccccccc"/><path id="shape15" transform="matrix(0.72 0 0 0.72 45.6588 98.51616)" fill="#7f0000" stroke-opacity="0" stroke="#000000" stroke-width="0" stroke-linecap="square" stroke-linejoin="bevel" d="M0 0C3.648 10.262 13.347 17.655 24.861 17.655L280.861 17.655C292.375 17.655 302.074 10.262 305.722 0Z" sodipodi:nodetypes="ccccc"/><g id="group2" transform="matrix(0.72 0 0 0.72 0 0)" fill="none"/><g id="group3" transform="matrix(0.72 0 0 0.72 0 0)" fill="none"/><g id="group4" transform="matrix(0.72 0 0 0.72 0 0)" fill="none"/><g id="group5" transform="matrix(0.72 0 0 0.72 0 0)" fill="none"/><g id="group6" transform="matrix(0.72 0 0 0.72 0 0)" fill="none"/><g id="group7" transform="matrix(0.72 0 0 0.72 0 0)" fill="none"/><g id="group8" transform="matrix(0.72 0 0 0.72 0 0)" fill="none"/><g id="group9" transform="matrix(0.72 0 0 0.72 0 0)" fill="none"/><g id="group10" transform="matrix(0.72 0 0 0.72 0 0)" fill="none"/><g id="group11" transform="matrix(0.72 0 0 0.72 0 0)" fill="none"/><g id="group12" transform="matrix(0.72 0 0 0.72 0 0)" fill="none"/><g id="group13" transform="matrix(0.72 0 0 0.72 0 0)" fill="none"/><g id="group14" transform="matrix(0.72 0 0 0.72 0 0)" fill="none"/><g id="group15" transform="matrix(0.72 0 0 0.72 0 0)" fill="none"/><g id="group16" transform="matrix(0.72 0 0 0.72 0 0)" fill="none"/>
</svg>
